<svg id="svg-sprite" xmlns="http://www.w3.org/2000/svg">
  <defs>
    <symbol id="facebook-icon" viewBox="0 0 100 100" xml:space="preserve">
      <ellipse cx="50" cy="50" rx="50" ry="50" style="fill:#3a5a98" />
      <path d="m85.4 14.7c19.5 19.5 19.5 51.1-8.44e-4 70.7-19.5 19.5-51.2 19.5-70.7 0z" style="fill:#345387" />
      <path
        d="m99.7 55.6-36.2-36.1-18.8 18.8 1.12 1.12-10.7 10.7 8.75 8.74-1.15 1.15 9.47 9.47-10.9 10.9 18.7 18.6c21-4.25 37.3-21.7 39.7-43.3z"
        style="fill:#2e4d72" />
      <path
        d="m41.3 31.4v8.38h-6.14v10.2h6.14v30.4h12.6v-30.4h8.47s0.793-4.91 1.18-10.3h-9.6v-7.01c0-1.05 1.38-2.45 2.74-2.45h6.87v-10.7h-9.35c-13.2-6.33e-4 -12.9 10.3-12.9 11.8z"
        style="fill:#fff" />
    </symbol>
    <symbol id="github-icon" viewBox="0 0 250 250">
      <path d="M0,0 L115,115 L130,115 L142,142 L250,250 L250,0 Z" style="fill: var(--color__txt);"></path>
      <path
        d="M128.3,109.0 C113.8,99.7 119.0,89.6 119.0,89.6 C122.0,82.7 120.5,78.6 120.5,78.6 C119.2,72.0 123.4,76.3 123.4,76.3 C127.3,80.9 125.5,87.3 125.5,87.3 C122.9,97.6 130.6,101.9 134.4,103.2"
        style="fill: var(--color__bg);" class="octo-arm"></path>
      <path
        d="M115.0,115.0 C114.9,115.1 118.7,116.5 119.8,115.4 L133.7,101.6 C136.9,99.2 139.9,98.4 142.2,98.6 C133.8,88.0 127.5,74.4 143.8,58.0 C148.5,53.4 154.0,51.2 159.7,51.0 C160.3,49.4 163.2,43.6 171.4,40.1 C171.4,40.1 176.1,42.5 178.8,56.2 C183.1,58.6 187.2,61.8 190.9,65.4 C194.5,69.0 197.7,73.2 200.1,77.6 C213.8,80.2 216.3,84.9 216.3,84.9 C212.7,93.1 206.9,96.0 205.4,96.6 C205.1,102.4 203.0,107.8 198.3,112.5 C181.9,128.9 168.3,122.5 157.7,114.1 C157.9,116.9 156.7,120.9 152.7,124.9 L141.0,136.5 C139.8,137.7 141.6,141.9 141.8,141.8 Z"
        style="fill: var(--color__bg);" class="octo-body"></path>
    </symbol>
    <symbol id="instagram-icon" viewBox="0 0 100 100" xml:space="preserve">
      <circle cx="50" cy="50" r="50" style="fill:#6c27b3" />
      <path
        d="m73.2 26c-5.97 0.756-12.2 0.73-18.5 0.133-8.75-0.673-21.5-4.71-26.3 3.37-7.57 12.9-3.84 29.5-2.07 44.2l26.3 26.3c25.5-1.35 45.9-21.8 47.2-47.2z"
        style="fill:#501a96" />
      <path
        d="m61.6 21.4h-23.1c-9.4 0-17.1 7.65-17.1 17.1v23.1c0 9.4 7.65 17.1 17.1 17.1h23.1c9.4 0 17.1-7.65 17.1-17.1v-23.1c-1.96e-4 -9.4-7.65-17.1-17.1-17.1zm11.3 40.2c0 6.24-5.06 11.3-11.3 11.3h-23.1c-6.24 0-11.3-5.06-11.3-11.3v-23.1c0-6.24 5.06-11.3 11.3-11.3h23.1c6.24 0 11.3 5.06 11.3 11.3z"
        style="fill:#fff;stroke-width:5.12" />
      <path
        d="m50 35.2c-8.16 0-14.8 6.64-14.8 14.8 0 8.16 6.64 14.8 14.8 14.8s14.8-6.64 14.8-14.8-6.64-14.8-14.8-14.8zm0 23.8c-5 0-9.05-4.05-9.05-9.05s4.05-9.05 9.05-9.05 9.05 4.05 9.05 9.05c0 5-4.05 9.05-9.05 9.05z"
        style="fill:#fff;stroke-width:5.12" />
      <path
        d="m68.4 35.3c0 1.96-1.59 3.55-3.55 3.55-1.96 0-3.55-1.59-3.55-3.55 0-1.96 1.59-3.55 3.55-3.55 1.96 0 3.55 1.59 3.55 3.55z"
        style="fill:#d1d1d1;stroke-width:5.12" />
      <path
        d="m61.6 21.4h-11.7v5.76h11.7c6.24 0 11.3 5.06 11.3 11.3v23.1c0 6.24-5.06 11.3-11.3 11.3h-11.7v5.76h11.7c9.4 0 17.1-7.65 17.1-17.1v-23.1c0-9.4-7.65-17.1-17.1-17.1z"
        style="fill:#d1d1d1;stroke-width:5.12" />
      <path
        d="m50 35.2c-0.0377 0-0.0744 0.0027-0.112 0.0027v5.76c0.0373-3.91e-4 0.0744-0.0027 0.112-0.0027 5 0 9.05 4.05 9.05 9.05 0 5-4.05 9.05-9.05 9.05-0.0377 0-0.0748-0.0023-0.112-0.0027v5.76c0.0377 3.9e-4 0.0744 0.0027 0.112 0.0027 8.16 0 14.8-6.64 14.8-14.8 0-8.16-6.64-14.8-14.8-14.8z"
        style="fill:#d1d1d1;stroke-width:5.12" />
    </symbol>
    <symbol id="reload-icon" viewBox="0 0 100 100" xml:space="preserve">
      <path
        d="m24.9 76c-4.08-3.68-7.02-8.09-8.95-12.8-5.11-12.6-2.72-27.5 7.26-37.8l9.21 9.23c0.507 0.508 1.42 0.142 1.54-0.61l5.03-33c0.0812-0.549-0.385-1.02-0.933-0.936l-32.9 5.04c-0.751 0.122-1.12 1.04-0.609 1.55l9.23 9.25c-15.2 15.6-17.8 39-7.83 57.4 3 5.51 7.16 10.6 12.5 14.8 9.01 7.18 20.1 10.6 31.1 10.4l2.07-13.6c-9.47 0.814-19.2-2.12-26.6-8.83z" />
      <path
        d="m86.2 84.1c15.2-15.6 17.8-39 7.83-57.4-3-5.51-7.16-10.6-12.5-14.8-9.01-7.18-20.1-10.6-31.1-10.4l-2.07 13.6c9.45-0.814 19.2 2.12 26.6 8.83 4.08 3.68 7.02 8.09 8.95 12.8 5.11 12.6 2.72 27.5-7.26 37.8l-9.21-9.23c-0.507-0.508-1.42-0.142-1.54 0.61l-5.03 33c-0.0812 0.549 0.385 1.02 0.933 0.936l32.9-5.04c0.751-0.122 1.1-1.04 0.609-1.55z" />
    </symbol>
    <symbol id="share-icon" viewBox="0 0 100 100" xml:space="preserve">
      <path
        d="m74 68.6c-3.1 0-5.99 0.901-8.42 2.45l-24.6-17.2c0.394-1.38 0.61-2.83 0.61-4.33 0-1.5-0.216-2.96-0.61-4.33l23.9-16.7c2.57 1.82 5.7 2.9 9.08 2.9 8.68 0 15.7-7.03 15.7-15.7 0-8.68-7.03-15.7-15.7-15.7-8.68 0-15.7 7.03-15.7 15.7 0 1.15 0.126 2.26 0.359 3.34l-24.5 17.1c-2.39-1.47-5.21-2.33-8.23-2.33-8.68 0-15.7 7.03-15.7 15.7 0 8.68 7.03 15.7 15.7 15.7 3.02 0 5.83-0.852 8.23-2.33l24.7 17.2c-0.355 1.31-0.548 2.69-0.548 4.11 0 8.68 7.03 15.7 15.7 15.7 8.68 0 15.7-7.03 15.7-15.7 0-8.68-7.03-15.7-15.7-15.7z" />
    </symbol>
    <symbol id="twitter-icon" viewBox="0 0 100 100" xml:space="preserve">
      <circle cx="50" cy="50" r="50" style="fill:#55acee;stroke-width:1.12" />
      <path
        d="m80.6 35.9c-2.14 0.95-4.45 1.59-6.86 1.88 2.47-1.48 4.36-3.82 5.26-6.61-2.31 1.37-4.87 2.36-7.59 2.9-2.18-2.32-5.29-3.77-8.73-3.77-6.6 0-12 5.35-12 12 0 0.937 0.106 1.85 0.311 2.72-9.93-0.498-18.7-5.26-24.6-12.5-1.03 1.76-1.62 3.82-1.62 6.01 0 4.15 2.11 7.81 5.32 9.95-1.96-0.0615-3.8-0.599-5.41-1.5-8.91e-4 0.0508-8.91e-4 0.102-8.91e-4 0.152 0 5.79 4.12 10.6 9.59 11.7-1 0.275-2.06 0.42-3.15 0.42-0.772 0-1.52-0.074-2.25-0.213 1.52 4.75 5.93 8.2 11.2 8.3-4.09 3.21-9.24 5.12-14.8 5.12-0.963 0-1.92-0.0562-2.85-0.168 5.29 3.39 11.6 5.37 18.3 5.37 22 0 34-18.2 34-34 0-0.518-0.0116-1.03-0.0348-1.55 2.34-1.68 4.36-3.79 5.96-6.19z"
        style="fill:#f1f2f2" />
    </symbol>
    <symbol id="whatsapp-icon" style="enable-background:new 0 0 58 58" viewBox="0 0 58 58" xml:space="preserve">
      <path
        d="m0 58 4.99-15c-2.53-4.26-3.99-9.22-3.99-14.5 0-15.7 12.8-28.5 28.5-28.5s28.5 12.8 28.5 28.5-12.8 28.5-28.5 28.5c-4.79 0-9.3-1.19-13.3-3.27z"
        style="fill:#2cb742" />
      <path
        d="m47.7 38c-1.32-2.49-6.17-5.33-6.17-5.33-1.1-0.626-2.42-0.696-3.05 0.42 0 0-1.58 1.89-1.98 2.16-1.83 1.24-3.53 1.19-5.24-0.52l-7.96-7.96c-1.71-1.71-1.76-3.41-0.52-5.24 0.272-0.401 2.16-1.98 2.16-1.98 1.12-0.627 1.05-1.95 0.42-3.05 0 0-2.84-4.85-5.33-6.17-1.06-0.56-2.36-0.364-3.2 0.482l-1.76 1.76c-5.58 5.58-2.83 11.9 2.75 17.4l10.2 10.2c5.58 5.58 11.9 8.32 17.4 2.75l1.76-1.76c0.846-0.848 1.04-2.15 0.481-3.2z"
        style="fill:#fff" />
    </symbol>
  </defs>
</svg>